# xmcd
#
# Track frame offsets: 
#        150
#        11395
#        24727
#        38083
#        51291
#        67418
#        80489
#        92042
#        105708
#        121176
#        131522
#        143500
#
# Disc length: 2121 seconds
#
# Revision: 0
# Processed by: cddbd v1.5.2PL0 Copyright (c) Steve Scherf et al.
# Submitted via: ExactAudioCopy v0.99pb4
#
DISCID=9d08470c
DTITLE=Various Artist - Bose Private Performances: He's a Heartache
DYEAR=1900
DGENRE=Country
TTITLE0=Tammy Wynette - Let's Get Together One Last Time
TTITLE1=Billy "Crash" Craddock - A Tear Fell
TTITLE2=Crystal Gayle - Why Have You Left the One You Left Me For
TTITLE3=Lynn Anderson - Rose Garden
TTITLE4=Mickey Gilley - A Headache Tomorrow (Or a Heartache Tonight)
TTITLE5=Janie Fricke - He's a Heartache (Looking For a Place to Happen
TTITLE5=)
TTITLE6=Crystal Gayle - Don't It Make My Brown Eyes Blue
TTITLE7=Ricky Skaggs - Crying My Heart Out Over You
TTITLE8=Jennifer Warnes - I Know a Heartache
TTITLE9=Emmylou Harris - I'll Go Stepping Too
TTITLE10=Willie Nelson - Permanently Lonely
TTITLE11=Rosanne Cash - Ain't No Money
EXTD=
EXTT0=
EXTT1=
EXTT2=
EXTT3=
EXTT4=
EXTT5=
EXTT6=
EXTT7=
EXTT8=
EXTT9=
EXTT10=
EXTT11=
PLAYORDER=
